<svg version="1.2" xmlns="http://www.w3.org/2000/svg" viewBox="0 0 100 45" width="100" height="45"><style></style><path  d="m74.5 9l-0.4 0.2 1.1 1.4 1.5-0.9z"/><path  d="m89.3 3.7c-0.3-0.1-0.7 0-1.2 0.1-0.5 0.1-1 0.3-1.3 0.5l-1.9 1.1-5.9-2-1.2 0.6 2.9 3.7-5.4 3c0.6 1.2 4 0.5 5.1-0.1l8.2-4.6c0.8-0.5 1.1-1 1.2-1.3 0.1-0.2 0.3-0.5 0.1-0.7-0.1-0.3-0.6-0.3-0.6-0.3z"/><path fill-rule="evenodd" d="m12.7 41c-0.3-0.4-2.7-3.7-2.7-5.2 0-1.6 1.3-2.9 2.9-2.9 1.6 0 2.9 1.3 2.9 2.9 0 1.5-2.4 4.8-2.6 5.2q-0.1 0.1-0.3 0.1-0.1 0-0.2-0.1zm0.2-3.6c0.9 0 1.7-0.7 1.7-1.6 0-0.9-0.8-1.7-1.7-1.7-0.9 0-1.6 0.8-1.6 1.7 0 0.9 0.7 1.6 1.6 1.6z"/><path  d="m12.9 42c-0.6 0-1.1 0.1-1.1 0.3 0 0.2 0.5 0.3 1.1 0.3 0.6 0 1.2-0.1 1.2-0.3 0-0.2-0.6-0.3-1.2-0.3z"/><path  d="m15.8 41.5l0.1 0.5c0 0 0.3-0.1 1-0.3l-0.2-0.4c-0.6 0.2-0.9 0.2-0.9 0.2z"/><path  d="m22.5 39.4l0.1 0.5q0.9-0.3 1.9-0.7l-0.2-0.4q-0.9 0.3-1.8 0.6z"/><path  d="m24.8 18.4l-0.6-0.1q0 0.1 0 0.2 0 1 0.5 1.9l0.4-0.2q-0.4-0.8-0.4-1.6 0.1-0.1 0-0.2z"/><path  d="m33.6 34.9l0.2 0.5q0.9-0.5 1.8-0.9l-0.2-0.5q-0.9 0.5-1.8 0.9z"/><path  d="m30 36.6l0.2 0.4q0.9-0.3 1.8-0.8l-0.2-0.4q-0.9 0.4-1.8 0.8z"/><path  d="m27.6 13.3l0.3 0.4q0.7-0.6 1.6-1.1l-0.2-0.5q-1 0.6-1.7 1.2z"/><path  d="m31.1 11.2l0.2 0.4q0.9-0.4 1.8-0.7l-0.2-0.5q-0.9 0.3-1.9 0.8z"/><path  d="m27.9 22.8q-0.9-0.6-1.5-1.1l-0.4 0.3q0.7 0.7 1.7 1.2z"/><path  d="m26.1 14.7q-0.8 0.8-1.3 1.6l0.5 0.3q0.4-0.8 1.1-1.6z"/><path  d="m26.2 38.1l0.2 0.5q0.9-0.4 1.9-0.8l-0.2-0.4q-0.9 0.3-1.9 0.7z"/><path  d="m43.4 13q-0.4-1.2-0.9-1.9l-0.4 0.3q0.5 0.7 0.8 1.7z"/><path  d="m55.6 21.8l-0.1-0.5q-0.9 0.1-2 0.3l0.1 0.5q1-0.2 2-0.3z"/><path  d="m59.6 21.3l-0.1-0.5q-0.9 0.1-2 0.2l0.1 0.5q1-0.1 2-0.2z"/><path  d="m70.7 14.3l-0.2-0.5q-0.8 0.5-1.8 1.1l0.3 0.4q0.9-0.6 1.7-1z"/><path  d="m67.3 16.4l-0.3-0.4q-0.8 0.5-1.6 1.1l0.2 0.4q0.9-0.6 1.7-1.1z"/><path  d="m44.3 19q0.1 0.9 0.3 1.9l0.5-0.1q-0.2-0.9-0.3-1.9h-0.5z"/><path  d="m33.8 23.9h-0.1v0.5h0.1q0.9 0 1.9 0v-0.5q-1 0-1.9 0z"/><path  d="m44.4 16.9c-0.1-0.8-0.3-1.4-0.4-2l-0.5 0.1q0.2 0.8 0.4 2z"/><path  d="m43.7 23.5l-0.1-0.5q-1 0.2-2 0.3l0.1 0.5q1-0.1 2-0.3z"/><path  d="m40.9 9.7q-0.8-0.4-2-0.5v0.5q1 0.1 1.8 0.5z"/><path  d="m18.6 40.7l0.2 0.5q0.9-0.3 1.9-0.6l-0.1-0.5q-1.1 0.3-2 0.6z"/><path  d="m31.7 23.8q-1.1-0.1-2-0.3l-0.1 0.5q0.9 0.2 2 0.3z"/><path  d="m61.5 20.7l0.1 0.5q1-0.1 2-0.1v-0.5q-1 0-2.1 0.1z"/><path  d="m62.1 19.5l0.3 0.4q0.8-0.7 1.6-1.3l-0.3-0.4q-0.8 0.6-1.6 1.3z"/><path  d="m59 22l0.3 0.4q0.7-0.6 1.6-1.3l-0.4-0.4q-0.8 0.7-1.5 1.3z"/><path  d="m65 36.2l0.3 0.5q0.8-0.6 1.6-1.3l-0.4-0.4q-0.7 0.7-1.5 1.2z"/><path  d="m61.4 37.6v0.5q1-0.1 2-0.5l-0.1-0.5q-1 0.4-1.9 0.5z"/><path  d="m67.9 33.6l0.4 0.3q0.6-0.8 1.1-1.7l-0.4-0.2q-0.5 0.8-1.1 1.6z"/><path  d="m69.6 21.4l-0.2 0.5q1 0.4 1.6 1l0.4-0.3q-0.7-0.7-1.8-1.2z"/><path  d="m71.6 24.6q0 0.1 0 0.3 0 0.7-0.2 1.6l0.5 0.1q0.2-0.9 0.2-1.7 0-0.2 0-0.3z"/><path  d="m70 30.2l0.4 0.2q0.4-0.9 0.8-1.8l-0.5-0.2q-0.3 0.9-0.7 1.8z"/><path  d="m57.4 37.3q0.9 0.5 2 0.7l0.1-0.5q-1-0.2-1.9-0.7z"/><path  d="m65.6 21.1q1.1 0.1 1.9 0.3l0.1-0.6q-0.9-0.1-2-0.2z"/><path  d="m54 30.5l-0.5-0.1q-0.1 0.3-0.1 0.6 0 0.7 0.2 1.4l0.1 0.1 0.4-0.2q-0.2-0.7-0.2-1.3 0.1-0.3 0.1-0.5z"/><path  d="m43.4 28.2l0.4 0.3q0.7-0.8 1.1-1.7l-0.4-0.2q-0.4 0.8-1.1 1.6z"/><path  d="m40.5 30.9l0.3 0.4q0.8-0.7 1.6-1.3l-0.4-0.4q-0.7 0.6-1.5 1.3z"/><path  d="m57.5 23.5q-0.7 0.7-1.3 1.5l0.4 0.3q0.6-0.7 1.3-1.5z"/><path  d="m37.6 23.7l0.1 0.5q1 0 2-0.2l-0.1-0.5q-1 0.2-2 0.2z"/><path  d="m45.5 22.8l-0.5 0.1 0.1 0.4q0.1 0.4 0.1 0.8 0 0.4-0.1 0.7l0.5 0.1q0.1-0.4 0.1-0.8 0-0.5-0.1-1z"/><path  d="m37.1 33l0.3 0.5q0.9-0.5 1.7-1.1l-0.3-0.4q-0.8 0.5-1.7 1z"/><path  d="m55 26.6q-0.6 0.9-1 1.8l0.5 0.2q0.3-0.8 0.9-1.7z"/><path  d="m54.5 34.4q0.5 0.9 1.3 1.6l0.3-0.3q-0.7-0.7-1.2-1.6z"/><path  d="m35.8 9.5q-0.4 0.1-0.9 0.3l0.1 0.5q0.5-0.2 1-0.3 0.5-0.1 0.9-0.1v-0.5q-0.5 0-1.1 0.1z"/><path  d="m49.6 22.2l2-0.3v0.5l-2 0.3z"/><path  d="m45.6 22.8l0.1 0.5q1-0.2 2-0.3l-0.1-0.5q-1 0.1-2 0.3z"/><path  d="m72.3 12.8l0.2 0.4c0.6-0.3 0.9-0.4 0.9-0.4l-0.2-0.5c0 0-0.4 0.2-0.9 0.5z"/></svg>